<?xml version="1.0" encoding="UTF-8" standalone="no"?>
<svg
   xmlns:dc="http://purl.org/dc/elements/1.1/"
   xmlns:cc="http://creativecommons.org/ns#"
   xmlns:rdf="http://www.w3.org/1999/02/22-rdf-syntax-ns#"
   xmlns:svg="http://www.w3.org/2000/svg"
   xmlns="http://www.w3.org/2000/svg"
   id="svg8"
   version="1.1"
   viewBox="0 0 117.20471 138.57656"
   height="138.57657mm"
   width="117.20471mm">
  <defs
     id="defs2" />
  <metadata
     id="metadata5">
    <rdf:RDF>
      <cc:Work
         rdf:about="">
        <dc:format>image/svg+xml</dc:format>
        <dc:type
           rdf:resource="http://purl.org/dc/dcmitype/StillImage" />
        <dc:title></dc:title>
      </cc:Work>
    </rdf:RDF>
  </metadata>
  <g
     transform="translate(-107.75166,-32.340959)"
     style="display:inline"
     id="layer3">
    <path
       id="path873"
       d="m 142.45465,139.9156 c 2.3525,10.86002 4.26258,14.19897 6.28084,19.37704 5.26509,8.98319 13.0196,10.14246 20.71339,11.49259 9.32111,-0.37845 16.09757,-2.23808 21.64883,-6.81538 6.88966,-10.28188 3.85401,-18.80525 6.28084,-28.33056 30.73406,-15.69848 30.13958,-48.557499 16.1698,-66.015579 4.17957,-11.0548 15.11432,-32.203368 9.88898,-37.150464 -10.32939,6.746433 -19.34987,13.249447 -30.736,15.768901 -9.247,-3.253092 -19.26195,-4.586322 -29.93419,-4.276312 -9.90294,0.501954 -18.80755,3.333322 -27.6624,6.280834 -10.46413,-0.920114 -16.09851,-6.898607 -26.86059,-10.690779 -1.53572,12.322649 1.76356,23.513588 11.22533,30.869627 -7.75202,7.304824 -9.41462,17.875654 -9.35444,28.731474 3.78258,21.889898 16.18879,31.643178 32.33961,40.758608 z"
       style="fill:#1b1f21;fill-opacity:1;stroke:#000000;stroke-width:0.264583px;stroke-linecap:round;stroke-linejoin:round;stroke-opacity:1" />
  </g>
  <g
     transform="translate(-107.75166,-32.340959)"
     style="display:inline"
     id="layer7">
    <path
       id="path897"
       d="m 136.4494,118.30655 c 6.19827,14.63486 8.92243,28.1214 14.17411,37.79761 5.33759,6.12913 12.59469,8.24476 20.6942,8.59896 8.90649,-1.00176 17.54649,-2.82351 20.78869,-8.50446 0.59212,-12.10679 3.68077,-23.07304 7.27604,-34.67931 -0.42759,-4.24972 -1.12469,-2.8398 -1.79539,-1.98438 -6.79385,12.96383 -13.46253,16.32088 -28.01986,9.5324 -30.14114,10.53727 -31.58978,-20.31231 -33.11779,-10.76086 z"
       style="fill:#b92906;fill-opacity:1;stroke:#000000;stroke-width:0.265;stroke-linecap:round;stroke-linejoin:round;stroke-miterlimit:4;stroke-dasharray:none;stroke-opacity:1" />
  </g>
  <g
     transform="translate(-107.75166,-32.340959)"
     style="display:inline"
     id="layer4">
    <path
       id="path876"
       d="m 157.15448,146.73097 c 3.65046,0.19981 2.8586,9.77341 3.5514,11.35386 1.761,-3.15578 3.87246,-11.19222 5.61069,0.85242 2.98103,-7.58445 5.23927,-6.3489 6.42396,0.031 2.25891,-3.20867 4.27475,-9.53151 7.11844,0.27817 0.81535,-0.16882 2.66346,-3.53641 5.82653,-12.24822 4.51657,3.80859 1.97479,9.16681 1.5368,13.56394 -8.9259,6.97087 -30.02778,4.26796 -36.28184,-3.67496 2.02281,-0.49481 3.36279,-0.54781 6.21402,-10.15624 z"
       style="fill:#fcd5ff;fill-opacity:1;stroke:#000000;stroke-width:0.264583px;stroke-linecap:round;stroke-linejoin:round;stroke-opacity:1" />
  </g>
  <g
     transform="translate(-107.75166,-32.340959)"
     style="display:inline"
     id="layer5">
    <path
       id="path879"
       d="m 149.67093,129.89299 c 0.25024,4.24786 2.20367,8.06656 4.94448,10.89123 1.82764,-2.34359 1.78382,-6.46593 1.22762,-8.81596 1.26445,0.45786 2.70259,4.13629 3.64056,3.89174 -0.0339,-2.54923 2.84812,-3.79062 4.35263,-5.19861 -5.28267,1.52696 -9.34935,0.96017 -14.14167,-0.76842 z"
       style="fill:#fcd5ff;fill-opacity:1;stroke:#000000;stroke-width:0.264583px;stroke-linecap:round;stroke-linejoin:round;stroke-opacity:1" />
    <path
       id="path883"
       d="m 182.43508,132.43946 c 0.22272,2.53907 2.93589,6.1851 3.5698,8.31303 3.29438,-4.09995 4.76975,-8.85792 5.43768,-12.11085 -3.53968,2.25126 -2.35465,3.43957 -9.00748,3.79782 z"
       style="fill:#fcd5ff;fill-opacity:1;stroke:#000000;stroke-width:0.264583px;stroke-linecap:round;stroke-linejoin:round;stroke-opacity:1" />
    <path
       id="path906"
       d="m 184.54961,124.88169 c 2.80633,-2.09657 5.61266,-3.62763 8.41899,-7.21628 1.73965,-2.62695 3.32563,-5.33073 4.00904,-8.4858"
       style="fill:none;stroke:#0e0721;stroke-width:0.265;stroke-linecap:round;stroke-linejoin:round;stroke-miterlimit:4;stroke-dasharray:none;stroke-opacity:1" />
    <path
       id="path908"
       d="m 152.34363,120.20447 c -3.88877,-2.72882 -7.74174,-5.5221 -10.7576,-9.82216"
       style="fill:none;stroke:#0e0721;stroke-width:0.265;stroke-linecap:round;stroke-linejoin:round;stroke-miterlimit:4;stroke-dasharray:none;stroke-opacity:1" />
  </g>
  <g
     transform="translate(-107.75166,-32.340959)"
     id="g914"
     style="display:inline">
    <path
       style="display:inline;fill:#fcd5ff;fill-opacity:1;stroke:#000000;stroke-width:0.264583px;stroke-linecap:round;stroke-linejoin:round;stroke-opacity:1"
       d="m 166.24164,130.19366 c 1.18464,-0.35766 2.16228,-0.98195 3.4077,-1.03565 2.41238,1.15001 4.76762,2.20635 6.31423,2.372 -1.5862,-0.001 -1.97843,1.83349 -2.83974,3.0402 -1.03478,-4.0945 -2.27376,-3.23251 -2.96624,-3.84102 -1.92263,5.01657 -0.72511,4.22927 -3.91595,-0.53551 z"
       id="path912" />
  </g>
  <g
     transform="translate(-107.75166,-32.340959)"
     style="display:inline"
     id="layer6">
    <path
       id="path886"
       d="m 223.95089,36.852677 c -4.8248,7.860784 -8.79814,15.891861 -14.74107,23.529019 -0.58027,2.8869 0.0449,5.050535 1.98437,6.425595 5.42035,-9.150504 9.05019,-19.579942 12.7567,-29.954614 z"
       style="fill:#b92906;fill-opacity:1;stroke:#000000;stroke-width:0.265;stroke-linecap:round;stroke-linejoin:round;stroke-miterlimit:4;stroke-dasharray:none;stroke-opacity:1" />
    <path
       id="path888"
       d="m 111.50298,46.491072 c 5.66685,5.281868 8.83467,10.335701 12.75669,15.119048 -1.07064,4.69584 -1.43751,6.18174 -2.74033,8.787945 -7.6098,-5.801061 -11.90494,-13.813795 -10.01636,-23.906993 z"
       style="fill:#b92906;fill-opacity:1;stroke:#000000;stroke-width:0.26458300000000001px;stroke-linecap:round;stroke-linejoin:round;stroke-opacity:1" />
    <path
       id="path890"
       d="m 163.5692,105.64434 c -7.9637,-5.67183 -10.06003,-5.656717 -18.23736,-5.48065"
       style="fill:none;stroke:#0e0721;stroke-width:0.265;stroke-linecap:round;stroke-linejoin:round;stroke-miterlimit:4;stroke-dasharray:none;stroke-opacity:1" />
    <path
       id="path892"
       d="m 167.53795,101.39211 c -6.29317,-4.644434 -8.21721,-4.995274 -15.49703,-6.236604"
       style="fill:none;stroke:#0e0721;stroke-width:0.265;stroke-linecap:round;stroke-linejoin:round;stroke-miterlimit:4;stroke-dasharray:none;stroke-opacity:1" />
    <path
       id="path894"
       d="m 175.85342,105.07738 c 1.41,-3.60931 3.07577,-6.579185 5.19717,-8.409971"
       style="fill:none;stroke:#0e0721;stroke-width:0.265;stroke-linecap:round;stroke-linejoin:round;stroke-miterlimit:4;stroke-dasharray:none;stroke-opacity:1" />
  </g>
  <g
     transform="translate(-107.75166,-32.340959)"
     style="display:inline"
     id="layer8">
    <path
       id="path900"
       d="m 174.26897,116.00904 c -3.34295,1.51931 -1.77036,2.99969 -2.28981,4.47087 -0.85371,1.62526 -3.47937,1.96604 -4.47225,1.04419 0.0566,-1.8847 -0.8995,-3.23658 -5.35513,-4.63497 -0.63469,-1.27901 -1.04701,-3.04649 0.61421,-3.827 5.50544,-2.12659 12.12771,-1.35631 11.50298,2.94691 z"
       style="fill:#729464;fill-opacity:1;stroke:#000000;stroke-width:0.26458300000000001px;stroke-linecap:round;stroke-linejoin:round;stroke-opacity:1" />
    <path
       id="path902"
       d="m 185.21778,91.539813 c 2.86217,-5.765455 9.80264,-10.813275 15.13929,-8.118601 -0.37265,2.922973 -2.16152,8.902241 -7.14032,9.903218 -3.02068,0.468452 -5.33265,-0.129953 -7.99897,-1.784617 z"
       style="fill:#cdeef2;fill-opacity:1;stroke:#000000;stroke-width:0.265;stroke-linecap:round;stroke-linejoin:round;stroke-miterlimit:4;stroke-dasharray:none;stroke-opacity:1" />
    <path
       id="path904"
       d="m 135.76432,83.532738 c 6.45506,-1.948046 10.8242,3.78153 14.43397,9.024181 -4.50416,3.835786 -8.21811,3.013502 -11.52828,-0.188989 -2.78222,-2.524411 -3.10743,-5.813519 -2.90569,-8.835192 z"
       style="fill:#cdeef2;fill-opacity:1;stroke:#000000;stroke-width:0.26458300000000001px;stroke-linecap:round;stroke-linejoin:round;stroke-opacity:1" />
  </g>
</svg>
